<svg width="209" height="33" viewBox="0 0 209 33" fill="none" xmlns="http://www.w3.org/2000/svg"><path d="M208.983 2.58125c0 .58477-.205 1.15125-.58 1.60297-.375.45172-.896.76074-1.474.87442-.579.11368-1.179.02499-1.699-.25096-.521-.27595-.928-.7221-1.154-1.26245-.225-.54036-.255-1.14149-.083-1.70102.171-.55954.533-1.042854 1.024-1.36764.49-.324785 1.079-.47094909 1.666-.4135963.587.0573523 1.136.3146743 1.553.7281383.241.231928.432.510438.561.818338.128.3079.192.63864.186.9718zm-.341 0c.004-.28931-.051-.57645-.162-.84391-.112-.26747-.277-.50965-.486-.7118-.204-.205796-.447-.369255-.715-.48084-.268-.111585-.556-.169059-.847-.169059-.291 0-.579.057474-.848.169059-.268.111585-.511.275044-.715.48084-.416.41263-.65.97223-.65 1.55571 0 .58349.234 1.14309.65 1.55572.204.2058.447.36926.715.48084.269.11159.557.16906.848.16906.291 0 .579-.05747.847-.16906.268-.11158.511-.27504.715-.48084.209-.20214.374-.44433.486-.7118.111-.26746.166-.5546.162-.84392zm-.567 1.28667h-.658l-.979-1.03892h-.483v1.03892h-.489v-2.6639h.921c.153-.00179.306.00623.457.02398.124.01661.245.05542.355.11454.109.05587.201.13841.269.23975.068.13123.096.27909.082.42597-.014.14688-.071.28659-.163.4025-.125.13703-.283.24056-.46.30103l1.148 1.15613zM207.03 1.9579c.001-.0644-.013-.12822-.041-.18647-.031-.05887-.08-.10646-.139-.13586-.061-.03156-.126-.05315-.194-.06393-.089-.01109-.179-.01554-.269-.01332h-.432v.91638h.373c.106.00047.213-.00845.317-.02664.079-.01543.154-.0482.218-.0959.055-.04365.099-.09925.129-.1625.028-.07389.041-.15277.038-.23176zM31.2809 20.0776h-6.0114V.0078125h9.1259L41.6133 12.5441 48.9575.0078125h9.0022V20.0776h-5.9845V5.77516L43.6126 20.0776h-4.0389L31.2809 5.77516V20.0776zM79.9057.0078125c3.0903 0 5.3377.5327805 6.7422 1.5983375 1.4046 1.06556 2.1068 2.77579 2.1068 5.13068V13.663c0 2.227-.5616 3.8555-1.6849 4.8856-1.1232 1.03-2.9084 1.5441-5.3556 1.5424H62.1484V.0078125h17.7573zM78.0246 4.95467H68.321V15.1974h10.4802c1.3132 0 2.2743-.2664 2.8834-.7992.6091-.5328.9119-1.3639.9083-2.4934V8.37779c0-1.17744-.369-2.04232-1.1071-2.59464-.7381-.55231-1.8909-.82848-3.4585-.82848h-.0027zM98.9809 15.2267h13.4741v4.8509H92.7949V.0078125h6.186V15.2267z" fill="#000"/><path fill-rule="evenodd" clip-rule="evenodd" d="M20.2483 20.0725H0V7.52552l.0134362-.47151.0456829-.47151.0752429-.46618.104802-.46086.131674-.45553.161234-.44487.190794-.43421.217665-.4209.241849-.40758.26873-.38893.29022-.37561.31709-.35429.3359-.33299.35741-.31434.3789-.29037.39502-.26372.40846-.242418.42458-.213113.43802-.189137.44877-.159834L5.705.237087l.46489-.103892.47026-.0745892.47564-.0426224L7.59143 0H20.2483v20.0725zM18.7469 5.16513H5.171L5.17369 18.783H18.9726V5.16513h-.2257zm-1.0561 8.46317v3.8893H7.43634l3.92606-3.8893h6.3284zm-7.3549-.7831l-3.88309 3.852V6.43314h3.88309v6.41206zm7.3549-6.41206v5.92456h-5.9549V6.43314h5.9549z" fill="#000"/><path d="M203.266 8.71582c2.134 0 3.619.38538 4.456 1.15613.836.77075 1.25 2.12315 1.241 4.05715v.5328c0 .1252 0 .2264-.016.325h-12.396v.5993c0 1.1686.29 1.9846.871 2.4482.58.4635 1.592.6943 3.036.6926h2.956c1.254 0 2.182-.1528 2.784-.4582.275-.1198.507-.3181.668-.5696.16-.2516.241-.5449.232-.8423v-.1172h1.881v.285c.022.483-.088.9629-.318 1.389-.231.4262-.573.7829-.99 1.0325-.873.5488-2.149.8232-3.83.8232h-3.41c-2.038 0-3.498-.3676-4.377-1.1029-.88-.7352-1.32-1.9571-1.32-3.6655v-1.7635c0-1.7369.437-2.9747 1.309-3.7135.873-.73878 2.335-1.10818 4.388-1.10818h2.835zm-6.718 4.47538h10.523v-.2664c0-.9857-.258-1.665-.776-2.0379-.519-.3703-1.543-.5568-3.082-.5568h-2.811c-1.433 0-2.434.2158-3.002.6474-.568.4315-.853 1.1685-.854 2.211l.002.0027zM153.072 16.6654c0 2.2732-1.702 3.4089-5.106 3.4071h-3.974c-3.477 0-5.217-1.1357-5.219-3.4071v-4.3342c0-2.3087 1.761-3.46304 5.284-3.46304h3.901c3.404 0 5.106 1.14994 5.106 3.44974l.008 4.3475zm-2.004-4.5073c0-1.0798-.932-1.6188-2.795-1.617h-4.509c-2.019 0-3.028.5967-3.026 1.7901v4.3342c0 1.1348 1.008 1.7022 3.026 1.7022h4.509c1.861 0 2.793-.5674 2.795-1.7022v-4.5073zM118.215 20.0729v-7.9225c0-1.0762 1.075-1.6152 3.225-1.6169 2.531 0 3.797.6331 3.797 1.8993v7.6374h1.983v-7.6374c0-1.2644 1.267-1.8976 3.8-1.8993 2.128 0 3.192.539 3.192 1.6169v7.9225h1.983v-7.6854c0-2.3566-1.725-3.53496-5.175-3.53496-2.451 0-4.03.61092-4.738 1.83276-.641-1.22184-2.254-1.83276-4.837-1.83276-3.466 0-5.199 1.17836-5.197 3.53496v7.6827l1.967.0027zM168.226 5.17676v3.69216h-7.285c-3.604 0-5.406 1.14278-5.404 3.42848v4.6991c0 2.0565 1.801 3.0848 5.404 3.0848h3.695c3.687 0 5.53-1.0922 5.53-3.2766V5.17676h-1.94zm0 11.38014c0 1.2094-1.092 1.8133-3.276 1.8115h-4.552c-1.934 0-2.901-.6038-2.899-1.8115v-4.0091c0-1.3249 1.008-1.9864 3.026-1.9846h7.701v5.9937zM192.02 20.0732V5.17134l-1.983-.00532V20.0812l1.983-.008zM185.302 8.79297v8.06633c0 1.0034-1.065 1.506-3.195 1.5077h-4.068c-2.187 0-3.28-.5168-3.279-1.5504V8.79297h-1.94V16.814c0 2.1719 1.851 3.257 5.552 3.2553h3.424c3.672 0 5.508-1.0851 5.508-3.2553V8.79297h-2.002zM79.9057.0078125c3.0903 0 5.3377.5327805 6.7422 1.5983375 1.4046 1.06556 2.1068 2.77579 2.1068 5.13068V13.663c0 2.227-.5616 3.8555-1.6849 4.8856-1.1232 1.03-2.9084 1.5441-5.3556 1.5424H62.1484V.0078125h17.7573zM78.0246 4.95467H68.321V15.1974h10.4802c1.3132 0 2.2743-.2664 2.8834-.7992.6091-.5328.9119-1.3639.9083-2.4934V8.37779c0-1.17744-.369-2.04232-1.1071-2.59464-.7381-.55231-1.8909-.82848-3.4585-.82848h-.0027zM98.9809 15.2267h13.4741v4.8509H92.7949V.0078125h6.186V15.2267z" fill="#000"/><g clip-path="url(#clip0_3320_43793)" fill="#000"><path d="M0 24.1875h.586014v1.0019H0v-1.0019zm0 1.7959h.586014v5.2095H0v-5.2095zM1.75855 25.9833h.52687v.7265h.01882c.29301-.578.80106-.8426 1.32794-.8426.79031 0 1.32794.4132 1.32794 1.3935v3.9348h-.58601v-3.7701c0-.7156-.29301-1.0694-.88978-1.0694-.68279 0-1.14246.5293-1.14246 1.3341v3.5027h-.58601v-5.2095h.00269zM6.31001 26.4747h-.71235v-.4916h.71235V24.541h.58602v1.4421h.91934v.4916h-.91934v3.7376c0 .4132.17473.5482.55644.5482.11828 0 .23387-.0189.36021-.0594v.4915c-.0672.0405-.21505.0594-.41128.0594-.79032 0-1.09408-.216-1.09408-.9128v-3.8645h.00269zM11.6429 29.4671c-.0887 1.11-.6935 1.8445-1.6693 1.8445-1.09407 0-1.73922-.7643-1.73922-2.7276 0-1.804.64515-2.7168 1.78762-2.7168 1.1424 0 1.6693.794 1.6693 2.5305v.216H8.85802v.2458c0 1.5015.52688 1.9633 1.10483 1.9633.61555 0 .99725-.4402 1.09405-1.353h.586v-.0027zm-.5752-1.3449c-.0188-1.2936-.3817-1.7662-1.10485-1.7662-.72311 0-1.08332.4699-1.10483 1.7662h2.20968zM12.6074 25.9833h.586v.8156h.0189c.2258-.5779.7042-.9317 1.3091-.9317.0672 0 .1371.0108.2043.0297v.5887c-.0968-.0189-.1963-.0297-.2823-.0297-.6451 0-1.25.4699-1.25 1.4827v3.2569h-.586v-5.2122zM15.323 25.9833h.5269v.7265h.0188c.293-.578.8011-.8426 1.3279-.8426.7903 0 1.328.4132 1.328 1.3935v3.9348h-.586v-3.7701c0-.7156-.293-1.0694-.8898-1.0694-.6828 0-1.1425.5293-1.1425 1.3341v3.5027h-.586v-5.2095h.0027zM19.5507 27.5342c0-1.0694.5081-1.669 1.6021-1.669 1.0941 0 1.4651.5591 1.4651 1.3827v3.0814c0 .2944.0967.4321.3037.4321h.1667v.4321c-.1075.0405-.1963.0595-.2742.0595-.4597 0-.7527-.1081-.7527-.6482v-.1755h-.0188c-.2339.6859-.7607.8831-1.3387.8831-.9086 0-1.3172-.5699-1.3172-1.4719 0-.6859.3118-1.2368 1.0457-1.4421l1.1048-.3133c.4113-.1188.4973-.216.4973-.8236 0-.6671-.3709-.9021-.8978-.9021-.6935 0-.9973.4213-.9973 1.1775h-.586l-.0027-.0027zm2.4811.7157h-.0188c-.0591.1755-.3898.2835-.6263.343l-.4892.1269c-.5861.1566-.8898.4618-.8898 1.0802 0 .6185.3118 1.0209.8199 1.0209.7123 0 1.2016-.5402 1.2016-1.4719v-1.0991h.0026zM24.0346 26.4747h-.7123v-.4916h.7123V24.541h.586v1.4421h.9194v.4916h-.9194v3.7376c0 .4132.1748.5482.5565.5482.1183 0 .2338-.0189.3602-.0594v.4915c-.0672.0405-.2151.0594-.4113.0594-.7903 0-1.0941-.216-1.0941-.9128v-3.8645h.0027zM26.2129 24.1875h.586v1.0019h-.586v-1.0019zm0 1.7959h.586v5.2095h-.586v-5.2095zM29.4829 25.8652c1.1425 0 1.7876.9128 1.7876 2.7168 0 1.8041-.6451 2.7277-1.7876 2.7277-1.1424 0-1.7876-.9128-1.7876-2.7277 0-1.8148.6452-2.7168 1.7876-2.7168zm0 4.9557c.6532 0 1.1613-.5699 1.1613-2.2362 0-1.6662-.5081-2.228-1.1613-2.228s-1.1613.5699-1.1613 2.228c0 1.6582.5081 2.2362 1.1613 2.2362zM32.1316 25.9833h.5269v.7265h.0188c.293-.578.8011-.8426 1.3279-.8426.7903 0 1.328.4132 1.328 1.3935v3.9348h-.586v-3.7701c0-.7156-.2931-1.0694-.8898-1.0694-.6828 0-1.1425.5293-1.1425 1.3341v3.5027h-.586v-5.2095h.0027zM36.3593 27.5342c0-1.0694.508-1.669 1.6021-1.669s1.4651.5591 1.4651 1.3827v3.0814c0 .2944.0967.4321.3037.4321h.1667v.4321c-.1075.0405-.1963.0595-.2742.0595-.4597 0-.7527-.1081-.7527-.6482v-.1755h-.0188c-.2339.6859-.7607.8831-1.3387.8831-.9086 0-1.3172-.5699-1.3172-1.4719 0-.6859.3118-1.2368 1.0457-1.4421l1.1048-.3133c.4113-.1188.4973-.216.4973-.8236 0-.6671-.3709-.9021-.8978-.9021-.6935 0-.9973.4213-.9973 1.1775h-.586l-.0027-.0027zm2.4811.7157h-.0188c-.0591.1755-.3898.2835-.6263.343l-.4893.1269c-.586.1566-.8897.4618-.8897 1.0802 0 .6185.3118 1.0209.8199 1.0209.7123 0 1.2016-.5402 1.2016-1.4719v-1.0991h.0026zM40.666 24.1875h.586v7.0054h-.586v-7.0054zM44.7097 25.9841h.5269v.7453h.0188c.1855-.4807.6156-.8642 1.2796-.8642 1.1532 0 1.6505.9236 1.6505 2.7277 0 1.804-.5188 2.7168-1.6613 2.7168-.6451 0-1.0833-.3538-1.2123-.902h-.0189v2.5115h-.586v-6.9351h.0027zm1.7392.3726c-.3306 0-.6263.1756-.8198.4619-.2527.3618-.3334.8722-.3334 1.777 0 1.9228.5377 2.228 1.1317 2.228.5941 0 1.1317-.3052 1.1317-2.228 0-1.9229-.5456-2.2362-1.1128-2.2362l.0026-.0027zM48.996 27.5342c0-1.0694.5081-1.669 1.6021-1.669 1.0941 0 1.4651.5591 1.4651 1.3827v3.0814c0 .2944.0967.4321.3037.4321h.1667v.4321c-.1075.0405-.1962.0595-.2742.0595-.4597 0-.7527-.1081-.7527-.6482v-.1755h-.0188c-.2339.6859-.7607.8831-1.3387.8831-.9086 0-1.3172-.5699-1.3172-1.4719 0-.6859.3119-1.2368 1.0457-1.4421l1.1048-.3133c.4113-.1188.4973-.216.4973-.8236 0-.6671-.3709-.9021-.8978-.9021-.6935 0-.9973.4213-.9973 1.1775h-.586l-.0027-.0027zm2.4812.7157h-.0189c-.0591.1755-.3897.2835-.6263.343l-.4892.1269c-.5861.1566-.8898.4618-.8898 1.0802 0 .6185.3118 1.0209.8199 1.0209.7123 0 1.2016-.5402 1.2016-1.4719v-1.0991h.0027zM53.2656 25.9833h.586v.8156h.0189c.2258-.5779.7043-.9317 1.3091-.9317.0672 0 .1371.0108.2043.0297v.5887c-.0968-.0189-.1963-.0297-.2823-.0297-.6451 0-1.25.4699-1.25 1.4827v3.2569h-.586v-5.2122zM56.1948 26.4747h-.7124v-.4916h.7124V24.541h.586v1.4421h.9166v.4916h-.9166v3.7376c0 .4132.1747.5482.5564.5482.1183 0 .2339-.0189.3602-.0594v.4915c-.0672.0405-.215.0594-.4112.0594-.7903 0-1.0941-.216-1.0941-.9128v-3.8645h.0027zM58.3347 25.9833h.5269v.7265h.0188c.293-.578.8011-.8426 1.328-.8426.7903 0 1.3279.4132 1.3279 1.3935v3.9348h-.586v-3.7701c0-.7156-.293-1.0694-.8898-1.0694-.6828 0-1.1425.5293-1.1425 1.3341v3.5027h-.586v-5.2095h.0027zM65.8656 29.4671c-.0887 1.11-.6935 1.8445-1.6693 1.8445-1.0941 0-1.7393-.7643-1.7393-2.7276 0-1.804.6452-2.7168 1.7876-2.7168 1.1425 0 1.6694.794 1.6694 2.5305v.216h-2.8333v.2458c0 1.5015.5269 1.9633 1.1048 1.9633.6156 0 .9973-.4402 1.0941-1.353h.586v-.0027zm-.5753-1.3449c-.0188-1.2936-.3817-1.7662-1.1021-1.7662-.7204 0-1.0833.4699-1.1048 1.7662h2.2069zM66.8301 25.9833h.586v.8156h.0188c.2258-.5779.7043-.9317 1.3091-.9317.0672 0 .1371.0108.2043.0297v.5887c-.0967-.0189-.1962-.0297-.2822-.0297-.6452 0-1.25.4699-1.25 1.4827v3.2569h-.586v-5.2122zM72.103 26.4751h-.7124v-.4915h.7124v-.6184c0-.7157.1478-1.2558 1.1317-1.2558.1747 0 .2634.0108.371.0297v.4915c-.0888-.0189-.1748-.0297-.2823-.0297-.4301 0-.6344.1674-.6344.7643v.6184h.9167v.4915h-.9167v4.718h-.586v-4.718zM75.7564 25.8652c1.1424 0 1.7876.9128 1.7876 2.7168 0 1.8041-.6452 2.7277-1.7876 2.7277-1.1425 0-1.7876-.9128-1.7876-2.7277 0-1.8148.6451-2.7168 1.7876-2.7168zm0 4.9557c.6532 0 1.1612-.5699 1.1612-2.2362 0-1.6662-.508-2.228-1.1612-2.228-.6533 0-1.1613.5699-1.1613 2.228 0 1.6582.508 2.2362 1.1613 2.2362zM78.4043 25.9833h.586v.8156h.0188c.2258-.5779.7043-.9317 1.3091-.9317.0673 0 .1371.0108.2043.0297v.5887c-.0967-.0189-.1962-.0297-.2822-.0297-.6452 0-1.25.4699-1.25 1.4827v3.2569h-.586v-5.2122zM83.5015 25.9833h.5268v.7265h.0189c.2742-.578.7419-.8426 1.3172-.8426.6263 0 1.0053.3835 1.0833.9128h.0188c.2339-.5779.6532-.9128 1.3172-.9128.7231 0 1.2016.4132 1.2016 1.3449v3.9834h-.586v-3.897c0-.6184-.2823-.9425-.8119-.9425-.586 0-1.0537.5293-1.0537 1.3341v3.5027h-.586v-3.8943c0-.6184-.2823-.9425-.8118-.9425-.5861 0-1.0538.5293-1.0538 1.3341v3.5027h-.586v-5.2095h.0054zM91.6763 25.8652c1.1424 0 1.7876.9128 1.7876 2.7168 0 1.8041-.6452 2.7277-1.7876 2.7277-1.1425 0-1.7876-.9128-1.7876-2.7277 0-1.8148.6451-2.7168 1.7876-2.7168zm0 4.9557c.6532 0 1.1613-.5699 1.1613-2.2362 0-1.6662-.5081-2.228-1.1613-2.228s-1.1613.5699-1.1613 2.228c0 1.6582.5081 2.2362 1.1613 2.2362zM97.0583 30.3287h-.0189c-.1559.5995-.6532.9803-1.2688.9803-1.1424 0-1.6612-.9209-1.6612-2.7276 0-1.8067.5188-2.7168 1.6612-2.7168.6452 0 1.0834.3538 1.2097.902h.0188v-2.5791h.586v7.0054h-.5268v-.8642zm-1.1909.4915c.5968 0 1.1317-.3052 1.1317-2.2361 0-1.9309-.5376-2.228-1.1317-2.228s-1.1317.3052-1.1317 2.228.5457 2.2361 1.1317 2.2361zM98.6602 25.9834h.586v3.6701c0 .8426.2822 1.1667.8978 1.1667.664 0 1.132-.5293 1.132-1.3341v-3.5027h.586v5.2095h-.527v-.7265h-.019c-.293.5779-.801.8426-1.3279.8426-.7903 0-1.3279-.4132-1.3279-1.3935v-3.9321zM103.033 24.1875h.586v7.0054h-.586v-7.0054zM104.684 27.5342c0-1.0694.508-1.669 1.602-1.669s1.465.5591 1.465 1.3827v3.0814c0 .2944.096.4321.303.4321h.167v.4321c-.107.0405-.196.0595-.274.0595-.46 0-.753-.1081-.753-.6482v-.1755h-.019c-.233.6859-.76.8831-1.338.8831-.909 0-1.317-.5699-1.317-1.4719 0-.6859.311-1.2368 1.045-1.4421l1.105-.3133c.411-.1188.497-.216.497-.8236 0-.6671-.371-.9021-.897-.9021-.694 0-.998.4213-.998 1.1775h-.586l-.002-.0027zm2.481.7157h-.019c-.059.1755-.39.2835-.626.343l-.49.1269c-.586.1566-.89.4618-.89 1.0802 0 .6185.312 1.0209.82 1.0209.713 0 1.202-.5402 1.202-1.4719v-1.0991h.003zM108.953 25.9833h.586v.8156h.019c.226-.5779.704-.9317 1.309-.9317.067 0 .137.0108.204.0297v.5887c-.096-.0189-.196-.0297-.282-.0297-.645 0-1.25.4699-1.25 1.4827v3.2569h-.586v-5.2122zM114.228 26.4747h-.712v-.4916h.712V24.541h.586v1.4421h.919v.4916h-.919v3.7376c0 .4132.175.5482.556.5482.119 0 .234-.0189.361-.0594v.4915c-.068.0405-.215.0594-.412.0594-.79 0-1.094-.216-1.094-.9128v-3.8645h.003zM116.404 24.1875h.586v1.0019h-.586v-1.0019zm0 1.7959h.586v5.2095h-.586v-5.2095zM118.202 25.9833h.527v.7265h.019c.274-.578.742-.8426 1.317-.8426.626 0 1.005.3835 1.083.9128h.019c.234-.5779.653-.9128 1.32-.9128.723 0 1.201.4132 1.201 1.3449v3.9834h-.586v-3.897c0-.6184-.282-.9425-.811-.9425-.586 0-1.054.5293-1.054 1.3341v3.5027h-.586v-3.8943c0-.6184-.282-.9425-.812-.9425-.586 0-1.054.5293-1.054 1.3341v3.5027h-.586v-5.2095h.003zM124.805 24.1875h.586v2.5818h.019c.126-.5482.567-.902 1.209-.902 1.143 0 1.661.9236 1.661 2.7168 0 1.7932-.518 2.7276-1.661 2.7276-.615 0-1.113-.3835-1.269-.9803h-.018v.8642h-.527v-7.0081zm1.717 6.6327c.586 0 1.132-.3052 1.132-2.2361 0-1.9309-.548-2.228-1.132-2.228-.583 0-1.131.3052-1.131 2.228s.537 2.2361 1.131 2.2361zM132.393 29.4671c-.089 1.11-.694 1.8445-1.669 1.8445-1.094 0-1.74-.7643-1.74-2.7276 0-1.804.646-2.7168 1.788-2.7168s1.669.794 1.669 2.5305v.216h-2.833v.2458c0 1.5015.527 1.9633 1.105 1.9633.615 0 .997-.4402 1.094-1.353h.586v-.0027zm-.575-1.3449c-.019-1.2936-.382-1.7662-1.105-1.7662s-1.083.4699-1.105 1.7662h2.21zM133.359 25.9833h.586v.8156h.019c.226-.5779.704-.9317 1.309-.9317.068 0 .137.0108.205.0297v.5887c-.097-.0189-.197-.0297-.283-.0297-.645 0-1.25.4699-1.25 1.4827v3.2569h-.586v-5.2122zM138.361 24.1875h.586v2.5818h.019c.127-.5482.567-.902 1.21-.902 1.142 0 1.661.9236 1.661 2.7168 0 1.7932-.519 2.7276-1.661 2.7276-.616 0-1.113-.3835-1.269-.9803h-.019v.8642h-.527v-7.0081zm1.718 6.6327c.586 0 1.132-.3052 1.132-2.2361 0-1.9309-.549-2.228-1.132-2.228-.583 0-1.132.3052-1.132 2.228s.538 2.2361 1.132 2.2361zM142.754 25.9834h.586v3.6701c0 .8426.282 1.1667.898 1.1667.664 0 1.131-.5293 1.131-1.3341v-3.5027h.586v5.2095h-.526v-.7265h-.019c-.293.5779-.801.8426-1.328.8426-.79 0-1.328-.4132-1.328-1.3935v-3.9321zM147.129 24.1875h.586v1.0019h-.586v-1.0019zm0 1.7959h.586v5.2095h-.586v-5.2095zM148.926 24.1875h.586v7.0054h-.586v-7.0054zM153.42 30.3287h-.019c-.156.5995-.653.9803-1.269.9803-1.142 0-1.661-.9209-1.661-2.7276 0-1.8067.519-2.7168 1.661-2.7168.645 0 1.083.3538 1.21.902h.018v-2.5791h.586v7.0054h-.526v-.8642zm-1.191.4915c.597 0 1.131-.3052 1.131-2.2361 0-1.9309-.537-2.228-1.131-2.228s-1.132.3052-1.132 2.228.548 2.2361 1.132 2.2361zM155.061 24.1875h.586v1.0019h-.586v-1.0019zm0 1.7959h.586v5.2095h-.586v-5.2095zM156.817 25.9833h.527v.7265h.019c.293-.578.801-.8426 1.328-.8426.79 0 1.328.4132 1.328 1.3935v3.9348h-.586v-3.7701c0-.7156-.293-1.0694-.89-1.0694-.683 0-1.143.5293-1.143 1.3341v3.5027h-.586v-5.2095h.003zM163.831 25.9835h.527v4.8368c0 1.4422-.527 2.1794-1.699 2.1794-1.005 0-1.532-.5293-1.543-1.2747h.586c0 .4916.46.7859.976.7859.712 0 1.094-.4996 1.094-1.4232v-.8237h-.019c-.185.6374-.675.9317-1.209.9317-.802 0-1.603-.5293-1.603-2.6088 0-1.7959.519-2.7168 1.662-2.7168.567 0 1.024.3349 1.209.9236h.019V25.9835zm-1.161 4.7207c.693 0 1.105-.5104 1.105-2.1794 0-1.669-.412-2.1686-1.105-2.1686-.694 0-1.105.5104-1.105 2.1686 0 1.6582.411 2.1794 1.105 2.1794zM170.95 29.4671c-.088 1.11-.693 1.8445-1.65 1.8445-1.094 0-1.739-.7643-1.739-2.7276 0-1.804.645-2.7168 1.787-2.7168.976 0 1.543.5995 1.602 1.669h-.586c-.067-.8156-.39-1.1775-1.016-1.1775s-1.161.3916-1.161 2.2361c0 1.9633.556 2.228 1.105 2.228.596 0 .976-.4402 1.075-1.353h.586l-.003-.0027zM173.323 25.8652c1.142 0 1.787.9128 1.787 2.7168 0 1.8041-.645 2.7277-1.787 2.7277-1.143 0-1.788-.9128-1.788-2.7277 0-1.8148.645-2.7168 1.788-2.7168zm0 4.9557c.653 0 1.161-.5699 1.161-2.2362 0-1.6662-.508-2.228-1.161-2.228s-1.162.5699-1.162 2.228c0 1.6582.509 2.2362 1.162 2.2362zM175.971 25.9833h.527v.7265h.019c.293-.578.801-.8426 1.328-.8426.79 0 1.328.4132 1.328 1.3935v3.9348h-.586v-3.7701c0-.7156-.293-1.0694-.89-1.0694-.683 0-1.142.5293-1.142 1.3341v3.5027h-.586v-5.2095h.002zM181.126 28.6037c-.731-.2836-.997-.7157-.997-1.2369 0-1.0695.664-1.5016 1.543-1.5016.976 0 1.425.4996 1.425 1.453v.1458h-.586v-.1458c0-.6779-.312-.9615-.85-.9615-.683 0-.946.3619-.946.8831 0 .3619.118.6482.704.8723l.85.3241c.704.2647.967.7562.967 1.3233 0 .8939-.508 1.5502-1.602 1.5502s-1.591-.4402-1.591-1.6177v-.1674h.586v.1377c0 .7643.333 1.1586.997 1.1586.627 0 1.027-.3538 1.027-.9318 0-.4618-.185-.7561-.704-.9614l-.82-.324h-.003zM184.32 26.4747h-.713v-.4916h.713V24.541h.586v1.4421h.919v.4916h-.919v3.7376c0 .4132.175.5482.556.5482.119 0 .234-.0189.36-.0594v.4915c-.067.0405-.215.0594-.411.0594-.79 0-1.094-.216-1.094-.9128v-3.8645h.003zM186.457 25.9833h.586v.8156h.019c.226-.5779.704-.9317 1.309-.9317.067 0 .137.0108.204.0297v.5887c-.096-.0189-.196-.0297-.282-.0297-.645 0-1.25.4699-1.25 1.4827v3.2569h-.586v-5.2122zM189.176 25.9834h.586v3.6701c0 .8426.282 1.1667.898 1.1667.664 0 1.131-.5293 1.131-1.3341v-3.5027h.586v5.2095h-.527v-.7265h-.018c-.293.5779-.801.8426-1.328.8426-.791 0-1.328-.4132-1.328-1.3935v-3.9321zM196.626 29.4671c-.089 1.11-.693 1.8445-1.65 1.8445-1.095 0-1.74-.7643-1.74-2.7276 0-1.804.645-2.7168 1.788-2.7168.976 0 1.543.5995 1.602 1.669h-.586c-.067-.8156-.39-1.1775-1.016-1.1775s-1.161.3916-1.161 2.2361c0 1.9633.556 2.228 1.104 2.228.597 0 .976-.4402 1.076-1.353h.586l-.003-.0027zM197.699 26.4747h-.713v-.4916h.713V24.541h.586v1.4421h.919v.4916h-.919v3.7376c0 .4132.174.5482.556.5482.118 0 .234-.0189.36-.0594v.4915c-.067.0405-.215.0594-.411.0594-.79 0-1.094-.216-1.094-.9128v-3.8645h.003zM199.877 24.1875h.586v1.0019h-.586v-1.0019zm0 1.7959h.586v5.2095h-.586v-5.2095zM203.147 25.8652c1.142 0 1.788.9128 1.788 2.7168 0 1.8041-.646 2.7277-1.788 2.7277s-1.788-.9128-1.788-2.7277c0-1.8148.646-2.7168 1.788-2.7168zm0 4.9557c.653 0 1.161-.5699 1.161-2.2362 0-1.6662-.508-2.228-1.161-2.228s-1.161.5699-1.161 2.228c0 1.6582.508 2.2362 1.161 2.2362zM205.796 25.9833h.527v.7265h.018c.293-.578.801-.8426 1.328-.8426.791 0 1.328.4132 1.328 1.3935v3.9348h-.586v-3.7701c0-.7156-.293-1.0694-.89-1.0694-.682 0-1.142.5293-1.142 1.3341v3.5027h-.586v-5.2095h.003z"/><path d="M0 24.1875h.586014v1.0019H0v-1.0019zm0 1.7959h.586014v5.2095H0v-5.2095zM1.75855 25.9833h.52687v.7265h.01882c.29301-.578.80106-.8426 1.32794-.8426.79031 0 1.32794.4132 1.32794 1.3935v3.9348h-.58601v-3.7701c0-.7156-.29301-1.0694-.88978-1.0694-.68279 0-1.14246.5293-1.14246 1.3341v3.5027h-.58601v-5.2095h.00269zM6.31001 26.4747h-.71235v-.4916h.71235V24.541h.58602v1.4421h.91934v.4916h-.91934v3.7376c0 .4132.17473.5482.55644.5482.11828 0 .23387-.0189.36021-.0594v.4915c-.0672.0405-.21505.0594-.41128.0594-.79032 0-1.09408-.216-1.09408-.9128v-3.8645h.00269zM11.6429 29.4671c-.0887 1.11-.6935 1.8445-1.6693 1.8445-1.09407 0-1.73922-.7643-1.73922-2.7276 0-1.804.64515-2.7168 1.78762-2.7168 1.1424 0 1.6693.794 1.6693 2.5305v.216H8.85802v.2458c0 1.5015.52688 1.9633 1.10483 1.9633.61555 0 .99725-.4402 1.09405-1.353h.586v-.0027zm-.5752-1.3449c-.0188-1.2936-.3817-1.7662-1.10485-1.7662-.72311 0-1.08332.4699-1.10483 1.7662h2.20968zM12.6074 25.9833h.586v.8156h.0189c.2258-.5779.7042-.9317 1.3091-.9317.0672 0 .1371.0108.2043.0297v.5887c-.0968-.0189-.1963-.0297-.2823-.0297-.6451 0-1.25.4699-1.25 1.4827v3.2569h-.586v-5.2122zM15.323 25.9833h.5269v.7265h.0188c.293-.578.8011-.8426 1.3279-.8426.7903 0 1.328.4132 1.328 1.3935v3.9348h-.586v-3.7701c0-.7156-.293-1.0694-.8898-1.0694-.6828 0-1.1425.5293-1.1425 1.3341v3.5027h-.586v-5.2095h.0027zM19.5507 27.5342c0-1.0694.5081-1.669 1.6021-1.669 1.0941 0 1.4651.5591 1.4651 1.3827v3.0814c0 .2944.0967.4321.3037.4321h.1667v.4321c-.1075.0405-.1963.0595-.2742.0595-.4597 0-.7527-.1081-.7527-.6482v-.1755h-.0188c-.2339.6859-.7607.8831-1.3387.8831-.9086 0-1.3172-.5699-1.3172-1.4719 0-.6859.3118-1.2368 1.0457-1.4421l1.1048-.3133c.4113-.1188.4973-.216.4973-.8236 0-.6671-.3709-.9021-.8978-.9021-.6935 0-.9973.4213-.9973 1.1775h-.586l-.0027-.0027zm2.4811.7157h-.0188c-.0591.1755-.3898.2835-.6263.343l-.4892.1269c-.5861.1566-.8898.4618-.8898 1.0802 0 .6185.3118 1.0209.8199 1.0209.7123 0 1.2016-.5402 1.2016-1.4719v-1.0991h.0026zM24.0346 26.4747h-.7123v-.4916h.7123V24.541h.586v1.4421h.9194v.4916h-.9194v3.7376c0 .4132.1748.5482.5565.5482.1183 0 .2338-.0189.3602-.0594v.4915c-.0672.0405-.2151.0594-.4113.0594-.7903 0-1.0941-.216-1.0941-.9128v-3.8645h.0027zM26.2129 24.1875h.586v1.0019h-.586v-1.0019zm0 1.7959h.586v5.2095h-.586v-5.2095zM29.4829 25.8652c1.1425 0 1.7876.9128 1.7876 2.7168 0 1.8041-.6451 2.7277-1.7876 2.7277-1.1424 0-1.7876-.9128-1.7876-2.7277 0-1.8148.6452-2.7168 1.7876-2.7168zm0 4.9557c.6532 0 1.1613-.5699 1.1613-2.2362 0-1.6662-.5081-2.228-1.1613-2.228s-1.1613.5699-1.1613 2.228c0 1.6582.5081 2.2362 1.1613 2.2362zM32.1316 25.9833h.5269v.7265h.0188c.293-.578.8011-.8426 1.3279-.8426.7903 0 1.328.4132 1.328 1.3935v3.9348h-.586v-3.7701c0-.7156-.2931-1.0694-.8898-1.0694-.6828 0-1.1425.5293-1.1425 1.3341v3.5027h-.586v-5.2095h.0027zM36.3593 27.5342c0-1.0694.508-1.669 1.6021-1.669s1.4651.5591 1.4651 1.3827v3.0814c0 .2944.0967.4321.3037.4321h.1667v.4321c-.1075.0405-.1963.0595-.2742.0595-.4597 0-.7527-.1081-.7527-.6482v-.1755h-.0188c-.2339.6859-.7607.8831-1.3387.8831-.9086 0-1.3172-.5699-1.3172-1.4719 0-.6859.3118-1.2368 1.0457-1.4421l1.1048-.3133c.4113-.1188.4973-.216.4973-.8236 0-.6671-.3709-.9021-.8978-.9021-.6935 0-.9973.4213-.9973 1.1775h-.586l-.0027-.0027zm2.4811.7157h-.0188c-.0591.1755-.3898.2835-.6263.343l-.4893.1269c-.586.1566-.8897.4618-.8897 1.0802 0 .6185.3118 1.0209.8199 1.0209.7123 0 1.2016-.5402 1.2016-1.4719v-1.0991h.0026zM40.666 24.1875h.586v7.0054h-.586v-7.0054zM44.7097 25.9841h.5269v.7453h.0188c.1855-.4807.6156-.8642 1.2796-.8642 1.1532 0 1.6505.9236 1.6505 2.7277 0 1.804-.5188 2.7168-1.6613 2.7168-.6451 0-1.0833-.3538-1.2123-.902h-.0189v2.5115h-.586v-6.9351h.0027zm1.7392.3726c-.3306 0-.6263.1756-.8198.4619-.2527.3618-.3334.8722-.3334 1.777 0 1.9228.5377 2.228 1.1317 2.228.5941 0 1.1317-.3052 1.1317-2.228 0-1.9229-.5456-2.2362-1.1128-2.2362l.0026-.0027zM48.996 27.5342c0-1.0694.5081-1.669 1.6021-1.669 1.0941 0 1.4651.5591 1.4651 1.3827v3.0814c0 .2944.0967.4321.3037.4321h.1667v.4321c-.1075.0405-.1962.0595-.2742.0595-.4597 0-.7527-.1081-.7527-.6482v-.1755h-.0188c-.2339.6859-.7607.8831-1.3387.8831-.9086 0-1.3172-.5699-1.3172-1.4719 0-.6859.3119-1.2368 1.0457-1.4421l1.1048-.3133c.4113-.1188.4973-.216.4973-.8236 0-.6671-.3709-.9021-.8978-.9021-.6935 0-.9973.4213-.9973 1.1775h-.586l-.0027-.0027zm2.4812.7157h-.0189c-.0591.1755-.3897.2835-.6263.343l-.4892.1269c-.5861.1566-.8898.4618-.8898 1.0802 0 .6185.3118 1.0209.8199 1.0209.7123 0 1.2016-.5402 1.2016-1.4719v-1.0991h.0027zM53.2656 25.9833h.586v.8156h.0189c.2258-.5779.7043-.9317 1.3091-.9317.0672 0 .1371.0108.2043.0297v.5887c-.0968-.0189-.1963-.0297-.2823-.0297-.6451 0-1.25.4699-1.25 1.4827v3.2569h-.586v-5.2122zM56.1948 26.4747h-.7124v-.4916h.7124V24.541h.586v1.4421h.9166v.4916h-.9166v3.7376c0 .4132.1747.5482.5564.5482.1183 0 .2339-.0189.3602-.0594v.4915c-.0672.0405-.215.0594-.4112.0594-.7903 0-1.0941-.216-1.0941-.9128v-3.8645h.0027zM58.3347 25.9833h.5269v.7265h.0188c.293-.578.8011-.8426 1.328-.8426.7903 0 1.3279.4132 1.3279 1.3935v3.9348h-.586v-3.7701c0-.7156-.293-1.0694-.8898-1.0694-.6828 0-1.1425.5293-1.1425 1.3341v3.5027h-.586v-5.2095h.0027zM65.8656 29.4671c-.0887 1.11-.6935 1.8445-1.6693 1.8445-1.0941 0-1.7393-.7643-1.7393-2.7276 0-1.804.6452-2.7168 1.7876-2.7168 1.1425 0 1.6694.794 1.6694 2.5305v.216h-2.8333v.2458c0 1.5015.5269 1.9633 1.1048 1.9633.6156 0 .9973-.4402 1.0941-1.353h.586v-.0027zm-.5753-1.3449c-.0188-1.2936-.3817-1.7662-1.1021-1.7662-.7204 0-1.0833.4699-1.1048 1.7662h2.2069zM66.8301 25.9833h.586v.8156h.0188c.2258-.5779.7043-.9317 1.3091-.9317.0672 0 .1371.0108.2043.0297v.5887c-.0967-.0189-.1962-.0297-.2822-.0297-.6452 0-1.25.4699-1.25 1.4827v3.2569h-.586v-5.2122zM72.103 26.4751h-.7124v-.4915h.7124v-.6184c0-.7157.1478-1.2558 1.1317-1.2558.1747 0 .2634.0108.371.0297v.4915c-.0888-.0189-.1748-.0297-.2823-.0297-.4301 0-.6344.1674-.6344.7643v.6184h.9167v.4915h-.9167v4.718h-.586v-4.718zM75.7564 25.8652c1.1424 0 1.7876.9128 1.7876 2.7168 0 1.8041-.6452 2.7277-1.7876 2.7277-1.1425 0-1.7876-.9128-1.7876-2.7277 0-1.8148.6451-2.7168 1.7876-2.7168zm0 4.9557c.6532 0 1.1612-.5699 1.1612-2.2362 0-1.6662-.508-2.228-1.1612-2.228-.6533 0-1.1613.5699-1.1613 2.228 0 1.6582.508 2.2362 1.1613 2.2362zM78.4043 25.9833h.586v.8156h.0188c.2258-.5779.7043-.9317 1.3091-.9317.0673 0 .1371.0108.2043.0297v.5887c-.0967-.0189-.1962-.0297-.2822-.0297-.6452 0-1.25.4699-1.25 1.4827v3.2569h-.586v-5.2122zM83.5015 25.9833h.5268v.7265h.0189c.2742-.578.7419-.8426 1.3172-.8426.6263 0 1.0053.3835 1.0833.9128h.0188c.2339-.5779.6532-.9128 1.3172-.9128.7231 0 1.2016.4132 1.2016 1.3449v3.9834h-.586v-3.897c0-.6184-.2823-.9425-.8119-.9425-.586 0-1.0537.5293-1.0537 1.3341v3.5027h-.586v-3.8943c0-.6184-.2823-.9425-.8118-.9425-.5861 0-1.0538.5293-1.0538 1.3341v3.5027h-.586v-5.2095h.0054zM91.6763 25.8652c1.1424 0 1.7876.9128 1.7876 2.7168 0 1.8041-.6452 2.7277-1.7876 2.7277-1.1425 0-1.7876-.9128-1.7876-2.7277 0-1.8148.6451-2.7168 1.7876-2.7168zm0 4.9557c.6532 0 1.1613-.5699 1.1613-2.2362 0-1.6662-.5081-2.228-1.1613-2.228s-1.1613.5699-1.1613 2.228c0 1.6582.5081 2.2362 1.1613 2.2362zM97.0583 30.3287h-.0189c-.1559.5995-.6532.9803-1.2688.9803-1.1424 0-1.6612-.9209-1.6612-2.7276 0-1.8067.5188-2.7168 1.6612-2.7168.6452 0 1.0834.3538 1.2097.902h.0188v-2.5791h.586v7.0054h-.5268v-.8642zm-1.1909.4915c.5968 0 1.1317-.3052 1.1317-2.2361 0-1.9309-.5376-2.228-1.1317-2.228s-1.1317.3052-1.1317 2.228.5457 2.2361 1.1317 2.2361zM98.6602 25.9834h.586v3.6701c0 .8426.2822 1.1667.8978 1.1667.664 0 1.132-.5293 1.132-1.3341v-3.5027h.586v5.2095h-.527v-.7265h-.019c-.293.5779-.801.8426-1.3279.8426-.7903 0-1.3279-.4132-1.3279-1.3935v-3.9321zM103.033 24.1875h.586v7.0054h-.586v-7.0054zM104.684 27.5342c0-1.0694.508-1.669 1.602-1.669s1.465.5591 1.465 1.3827v3.0814c0 .2944.096.4321.303.4321h.167v.4321c-.107.0405-.196.0595-.274.0595-.46 0-.753-.1081-.753-.6482v-.1755h-.019c-.233.6859-.76.8831-1.338.8831-.909 0-1.317-.5699-1.317-1.4719 0-.6859.311-1.2368 1.045-1.4421l1.105-.3133c.411-.1188.497-.216.497-.8236 0-.6671-.371-.9021-.897-.9021-.694 0-.998.4213-.998 1.1775h-.586l-.002-.0027zm2.481.7157h-.019c-.059.1755-.39.2835-.626.343l-.49.1269c-.586.1566-.89.4618-.89 1.0802 0 .6185.312 1.0209.82 1.0209.713 0 1.202-.5402 1.202-1.4719v-1.0991h.003zM108.953 25.9833h.586v.8156h.019c.226-.5779.704-.9317 1.309-.9317.067 0 .137.0108.204.0297v.5887c-.096-.0189-.196-.0297-.282-.0297-.645 0-1.25.4699-1.25 1.4827v3.2569h-.586v-5.2122zM114.228 26.4747h-.712v-.4916h.712V24.541h.586v1.4421h.919v.4916h-.919v3.7376c0 .4132.175.5482.556.5482.119 0 .234-.0189.361-.0594v.4915c-.068.0405-.215.0594-.412.0594-.79 0-1.094-.216-1.094-.9128v-3.8645h.003zM116.404 24.1875h.586v1.0019h-.586v-1.0019zm0 1.7959h.586v5.2095h-.586v-5.2095zM118.202 25.9833h.527v.7265h.019c.274-.578.742-.8426 1.317-.8426.626 0 1.005.3835 1.083.9128h.019c.234-.5779.653-.9128 1.32-.9128.723 0 1.201.4132 1.201 1.3449v3.9834h-.586v-3.897c0-.6184-.282-.9425-.811-.9425-.586 0-1.054.5293-1.054 1.3341v3.5027h-.586v-3.8943c0-.6184-.282-.9425-.812-.9425-.586 0-1.054.5293-1.054 1.3341v3.5027h-.586v-5.2095h.003zM124.805 24.1875h.586v2.5818h.019c.126-.5482.567-.902 1.209-.902 1.143 0 1.661.9236 1.661 2.7168 0 1.7932-.518 2.7276-1.661 2.7276-.615 0-1.113-.3835-1.269-.9803h-.018v.8642h-.527v-7.0081zm1.717 6.6327c.586 0 1.132-.3052 1.132-2.2361 0-1.9309-.548-2.228-1.132-2.228-.583 0-1.131.3052-1.131 2.228s.537 2.2361 1.131 2.2361zM132.393 29.4671c-.089 1.11-.694 1.8445-1.669 1.8445-1.094 0-1.74-.7643-1.74-2.7276 0-1.804.646-2.7168 1.788-2.7168s1.669.794 1.669 2.5305v.216h-2.833v.2458c0 1.5015.527 1.9633 1.105 1.9633.615 0 .997-.4402 1.094-1.353h.586v-.0027zm-.575-1.3449c-.019-1.2936-.382-1.7662-1.105-1.7662s-1.083.4699-1.105 1.7662h2.21zM133.359 25.9833h.586v.8156h.019c.226-.5779.704-.9317 1.309-.9317.068 0 .137.0108.205.0297v.5887c-.097-.0189-.197-.0297-.283-.0297-.645 0-1.25.4699-1.25 1.4827v3.2569h-.586v-5.2122zM138.361 24.1875h.586v2.5818h.019c.127-.5482.567-.902 1.21-.902 1.142 0 1.661.9236 1.661 2.7168 0 1.7932-.519 2.7276-1.661 2.7276-.616 0-1.113-.3835-1.269-.9803h-.019v.8642h-.527v-7.0081zm1.718 6.6327c.586 0 1.132-.3052 1.132-2.2361 0-1.9309-.549-2.228-1.132-2.228-.583 0-1.132.3052-1.132 2.228s.538 2.2361 1.132 2.2361zM142.754 25.9834h.586v3.6701c0 .8426.282 1.1667.898 1.1667.664 0 1.131-.5293 1.131-1.3341v-3.5027h.586v5.2095h-.526v-.7265h-.019c-.293.5779-.801.8426-1.328.8426-.79 0-1.328-.4132-1.328-1.3935v-3.9321zM147.129 24.1875h.586v1.0019h-.586v-1.0019zm0 1.7959h.586v5.2095h-.586v-5.2095zM148.926 24.1875h.586v7.0054h-.586v-7.0054zM153.42 30.3287h-.019c-.156.5995-.653.9803-1.269.9803-1.142 0-1.661-.9209-1.661-2.7276 0-1.8067.519-2.7168 1.661-2.7168.645 0 1.083.3538 1.21.902h.018v-2.5791h.586v7.0054h-.526v-.8642zm-1.191.4915c.597 0 1.131-.3052 1.131-2.2361 0-1.9309-.537-2.228-1.131-2.228s-1.132.3052-1.132 2.228.548 2.2361 1.132 2.2361zM155.061 24.1875h.586v1.0019h-.586v-1.0019zm0 1.7959h.586v5.2095h-.586v-5.2095zM156.817 25.9833h.527v.7265h.019c.293-.578.801-.8426 1.328-.8426.79 0 1.328.4132 1.328 1.3935v3.9348h-.586v-3.7701c0-.7156-.293-1.0694-.89-1.0694-.683 0-1.143.5293-1.143 1.3341v3.5027h-.586v-5.2095h.003zM163.831 25.9835h.527v4.8368c0 1.4422-.527 2.1794-1.699 2.1794-1.005 0-1.532-.5293-1.543-1.2747h.586c0 .4916.46.7859.976.7859.712 0 1.094-.4996 1.094-1.4232v-.8237h-.019c-.185.6374-.675.9317-1.209.9317-.802 0-1.603-.5293-1.603-2.6088 0-1.7959.519-2.7168 1.662-2.7168.567 0 1.024.3349 1.209.9236h.019V25.9835zm-1.161 4.7207c.693 0 1.105-.5104 1.105-2.1794 0-1.669-.412-2.1686-1.105-2.1686-.694 0-1.105.5104-1.105 2.1686 0 1.6582.411 2.1794 1.105 2.1794zM170.95 29.4671c-.088 1.11-.693 1.8445-1.65 1.8445-1.094 0-1.739-.7643-1.739-2.7276 0-1.804.645-2.7168 1.787-2.7168.976 0 1.543.5995 1.602 1.669h-.586c-.067-.8156-.39-1.1775-1.016-1.1775s-1.161.3916-1.161 2.2361c0 1.9633.556 2.228 1.105 2.228.596 0 .976-.4402 1.075-1.353h.586l-.003-.0027zM173.323 25.8652c1.142 0 1.787.9128 1.787 2.7168 0 1.8041-.645 2.7277-1.787 2.7277-1.143 0-1.788-.9128-1.788-2.7277 0-1.8148.645-2.7168 1.788-2.7168zm0 4.9557c.653 0 1.161-.5699 1.161-2.2362 0-1.6662-.508-2.228-1.161-2.228s-1.162.5699-1.162 2.228c0 1.6582.509 2.2362 1.162 2.2362zM175.971 25.9833h.527v.7265h.019c.293-.578.801-.8426 1.328-.8426.79 0 1.328.4132 1.328 1.3935v3.9348h-.586v-3.7701c0-.7156-.293-1.0694-.89-1.0694-.683 0-1.142.5293-1.142 1.3341v3.5027h-.586v-5.2095h.002zM181.126 28.6037c-.731-.2836-.997-.7157-.997-1.2369 0-1.0695.664-1.5016 1.543-1.5016.976 0 1.425.4996 1.425 1.453v.1458h-.586v-.1458c0-.6779-.312-.9615-.85-.9615-.683 0-.946.3619-.946.8831 0 .3619.118.6482.704.8723l.85.3241c.704.2647.967.7562.967 1.3233 0 .8939-.508 1.5502-1.602 1.5502s-1.591-.4402-1.591-1.6177v-.1674h.586v.1377c0 .7643.333 1.1586.997 1.1586.627 0 1.027-.3538 1.027-.9318 0-.4618-.185-.7561-.704-.9614l-.82-.324h-.003zM184.32 26.4747h-.713v-.4916h.713V24.541h.586v1.4421h.919v.4916h-.919v3.7376c0 .4132.175.5482.556.5482.119 0 .234-.0189.36-.0594v.4915c-.067.0405-.215.0594-.411.0594-.79 0-1.094-.216-1.094-.9128v-3.8645h.003zM186.457 25.9833h.586v.8156h.019c.226-.5779.704-.9317 1.309-.9317.067 0 .137.0108.204.0297v.5887c-.096-.0189-.196-.0297-.282-.0297-.645 0-1.25.4699-1.25 1.4827v3.2569h-.586v-5.2122zM189.176 25.9834h.586v3.6701c0 .8426.282 1.1667.898 1.1667.664 0 1.131-.5293 1.131-1.3341v-3.5027h.586v5.2095h-.527v-.7265h-.018c-.293.5779-.801.8426-1.328.8426-.791 0-1.328-.4132-1.328-1.3935v-3.9321zM196.626 29.4671c-.089 1.11-.693 1.8445-1.65 1.8445-1.095 0-1.74-.7643-1.74-2.7276 0-1.804.645-2.7168 1.788-2.7168.976 0 1.543.5995 1.602 1.669h-.586c-.067-.8156-.39-1.1775-1.016-1.1775s-1.161.3916-1.161 2.2361c0 1.9633.556 2.228 1.104 2.228.597 0 .976-.4402 1.076-1.353h.586l-.003-.0027zM197.699 26.4747h-.713v-.4916h.713V24.541h.586v1.4421h.919v.4916h-.919v3.7376c0 .4132.174.5482.556.5482.118 0 .234-.0189.36-.0594v.4915c-.067.0405-.215.0594-.411.0594-.79 0-1.094-.216-1.094-.9128v-3.8645h.003zM199.877 24.1875h.586v1.0019h-.586v-1.0019zm0 1.7959h.586v5.2095h-.586v-5.2095zM203.147 25.8652c1.142 0 1.788.9128 1.788 2.7168 0 1.8041-.646 2.7277-1.788 2.7277s-1.788-.9128-1.788-2.7277c0-1.8148.646-2.7168 1.788-2.7168zm0 4.9557c.653 0 1.161-.5699 1.161-2.2362 0-1.6662-.508-2.228-1.161-2.228s-1.161.5699-1.161 2.228c0 1.6582.508 2.2362 1.161 2.2362zM205.796 25.9833h.527v.7265h.018c.293-.578.801-.8426 1.328-.8426.791 0 1.328.4132 1.328 1.3935v3.9348h-.586v-3.7701c0-.7156-.293-1.0694-.89-1.0694-.682 0-1.142.5293-1.142 1.3341v3.5027h-.586v-5.2095h.003z"/></g><defs><clipPath id="clip0_3320_43793"><path fill="#fff" transform="translate(0 24.1094)" d="M0 0h209v8.89041H0z"/></clipPath></defs></svg>